<?xml version="1.0" encoding="UTF-8" standalone="no"?>
<!-- Generator: Adobe Illustrator 25.0.0, SVG Export Plug-In . SVG Version: 6.00 Build 0)  -->

<svg
   xmlns:dc="http://purl.org/dc/elements/1.1/"
   xmlns:cc="http://creativecommons.org/ns#"
   xmlns:rdf="http://www.w3.org/1999/02/22-rdf-syntax-ns#"
   xmlns:svg="http://www.w3.org/2000/svg"
   xmlns="http://www.w3.org/2000/svg"
   xmlns:sodipodi="http://sodipodi.sourceforge.net/DTD/sodipodi-0.dtd"
   xmlns:inkscape="http://www.inkscape.org/namespaces/inkscape"
   version="1.1"
   id="Layer_1"
   x="0px"
   y="0px"
   viewBox="0 0 108.3 108.3"
   style="enable-background:new 0 0 108.3 108.3;"
   xml:space="preserve"
   sodipodi:docname="undraw_profile.svg"
   inkscape:version="0.92.5 (2060ec1f9f, 2020-04-08)"><metadata
   id="metadata21"><rdf:RDF><cc:Work
       rdf:about=""><dc:format>image/svg+xml</dc:format><dc:type
         rdf:resource="http://purl.org/dc/dcmitype/StillImage" /></cc:Work></rdf:RDF></metadata><defs
   id="defs19">
	

		
		
		
		
		
		
		
		
		
		
	</defs><sodipodi:namedview
   pagecolor="#ffffff"
   bordercolor="#666666"
   borderopacity="1"
   objecttolerance="10"
   gridtolerance="10"
   guidetolerance="10"
   inkscape:pageopacity="0"
   inkscape:pageshadow="2"
   inkscape:window-width="1366"
   inkscape:window-height="652"
   id="namedview17"
   showgrid="false"
   inkscape:zoom="2.179132"
   inkscape:cx="94.789139"
   inkscape:cy="-48.408094"
   inkscape:window-x="0"
   inkscape:window-y="27"
   inkscape:window-maximized="1"
   inkscape:current-layer="Layer_1" />
<style
   type="text/css"
   id="style2">
	.st0{fill:#E6E6E6;}
	.st1{fill:#FFB8B8;}
	.st2{fill:#575A89;}
	.st3{fill:#2F2E41;}
</style>
<rect
   style="opacity:1;fill:#e6e6e6;fill-opacity:1;stroke:none;stroke-width:0.91615897;stroke-linecap:round;stroke-linejoin:round;stroke-miterlimit:4;stroke-dasharray:none;stroke-dashoffset:0;stroke-opacity:1;paint-order:markers stroke fill"
   id="rect845"
   width="108.3"
   height="134.91609"
   x="3.1681384e-06"
   y="-13.308048"
   ry="0"
   inkscape:export-xdpi="499"
   inkscape:export-ydpi="499" /><path
   id="Path_945"
   class="st1"
   d="m 31.038979,57.170325 c 0,0 6.508278,18.196613 1.461042,28.423906 -5.047236,10.227293 7.969319,21.782809 7.969319,21.782809 0,0 34.268074,-17.399683 29.884948,-26.165934 C 65.971162,72.444854 58.665953,60.889341 60.126995,53.584132 Z"
   inkscape:connector-curvature="0"
   style="fill:#ffb8b8;stroke-width:1.32821989" /><circle
   id="Ellipse_185"
   class="st1"
   cx="43.78989"
   cy="40.833218"
   r="23.243849"
   style="fill:#ffb8b8;stroke-width:1.32821989" /><path
   id="Path_951"
   class="st3"
   d="M 65.971162,19.714524 C 62.384969,14.003179 56.939267,9.7528749 50.563812,7.8933671 L 45.78222,11.745205 47.641728,7.3620791 c -1.593864,-0.265644 -3.054906,-0.265644 -4.64877,-0.265644 L 38.742654,12.542137 40.46934,7.2292571 C 33.031309,8.1590111 26.257387,12.143671 21.874262,18.253482 16.42856,26.08998 15.498806,36.981383 20.811686,44.81788 c 1.461042,-4.515947 3.187728,-8.766251 4.648769,-13.149377 1.195398,0.132822 2.257974,0.132822 3.453372,0 l 1.726686,-4.117481 0.531288,3.984659 c 5.578524,-0.531288 13.680665,-1.593864 18.993545,-2.523618 l -0.531288,-3.054905 3.054905,2.523618 c 1.593864,-0.398466 2.523618,-0.66411 2.523618,-0.929754 3.851838,6.242633 7.703676,10.227293 11.688335,16.602748 1.461042,-9.031895 3.98466,-16.337104 -0.929754,-24.439246 z"
   inkscape:connector-curvature="0"
   style="fill:#2f2e41;stroke-width:1.32821989" /><ellipse
   id="Ellipse_186"
   class="st1"
   cx="64.642944"
   cy="40.036289"
   rx="1.593864"
   ry="3.1877279"
   style="fill:#ffb8b8;stroke-width:1.32821989" />
<g
   id="g883"><g
     transform="matrix(0.96637482,0,0,0.96637482,1.8208038,3.1974525)"
     id="g872"><path
       id="Path_946"
       class="st2"
       d="M 29.843581,120.12795 C 26.390209,119.19819 23.06966,118.0028 19.74911,116.67458 l 0.66411,-17.665328 6.508277,-14.610419 c 1.461042,1.195398 3.054906,2.125152 4.64877,3.054906 0.398466,0.265644 0.796932,0.398466 1.195398,0.66411 6.109811,2.922084 16.204283,5.578524 25.900288,-1.726686 3.586194,-2.789262 6.641099,-6.242633 8.899073,-10.094471 l 18.462257,10.360115 0.929754,11.157047 1.062576,13.016556 c -1.593864,1.06258 -3.187728,1.99233 -4.781592,2.92208 -8.633429,4.78159 -18.196613,7.70368 -27.892618,8.63343 -2.257974,0.26565 -4.515947,0.26565 -6.773921,0.26565 -6.375456,0 -12.618089,-0.92976 -18.727901,-2.52362 z"
       inkscape:connector-curvature="0"
       style="fill:#575a89;stroke-width:1.32821989" /><path
       id="Path_947"
       class="st2"
       d="m 34.359529,73.50743 v 0 l -0.929754,9.563183 -0.531288,5.047236 -0.66411,7.438031 -2.390796,24.57207 c -3.453372,-0.92976 -6.773921,-2.12515 -10.094471,-3.45337 -1.726686,-0.66411 -3.32055,-1.46104 -4.914414,-2.3908 -3.851837,-1.99233 -7.4380312,-4.38312 -10.8914029,-7.03956 L 1.4196752,95.290237 1.5524972,95.157415 Z"
       inkscape:connector-curvature="0"
       style="fill:#575a89;stroke-width:1.32821989" /><path
       id="Path_948"
       class="st2"
       d="m 83.238021,113.61967 c -8.633429,4.78159 -18.196613,7.70368 -27.892618,8.63343 0.531288,-8.89907 1.32822,-17.39968 2.125152,-24.970534 0.398466,-3.851837 0.929754,-7.570853 1.461042,-10.891403 1.593864,-10.625759 3.32055,-17.930968 4.515948,-18.860722 l 8.102141,5.312879 32.674214,11.555513 -0.66411,12.618089 c -4.515952,5.312878 -9.69601,9.828828 -15.407355,13.680668 -1.726686,1.06257 -3.32055,2.12515 -4.914414,2.92208 z"
       inkscape:connector-curvature="0"
       style="fill:#575a89;stroke-width:1.32821989" /><path
       id="Path_949"
       class="st2"
       d="m 4.076115,107.37704 c -1.5938638,-1.1954 -3.0549057,-2.52362 -4.51594761,-3.85184 L 0.7555653,95.423058 1.6853192,95.290237 5.8028009,94.758949 14.834696,114.4166 c -3.719015,-2.12515 -7.3052092,-4.38312 -10.758581,-7.03956 z"
       inkscape:connector-curvature="0"
       style="fill:#575a89;stroke-width:1.32821989" /><path
       id="Path_950"
       class="st2"
       d="m 108.73984,89.977357 c -1.59386,2.523618 -3.32055,4.781592 -5.31288,7.039565 -4.515944,5.312878 -9.696002,9.828828 -15.407347,13.680668 -1.593864,1.06257 -3.187728,1.99233 -4.781592,2.92208 l -0.796932,-3.71901 4.64877,-12.086806 5.578523,-14.743241 11.688338,1.461042 c 1.46104,1.726686 2.92208,3.586194 4.38312,5.445702 z"
       inkscape:connector-curvature="0"
       style="fill:#575a89;stroke-width:1.32821989" /></g><path
     inkscape:connector-curvature="0"
     id="path874"
     d="m 1.3957606,103.2416 c -3.675975,19.82858 -1.25192977,19.32376 0,22.72599 H 106.69386 c 4.74512,-13.97715 6.44853,-26.667421 0,-35.908795 z"
     style="fill:#575a89;fill-opacity:1;stroke:none;stroke-width:1px;stroke-linecap:butt;stroke-linejoin:miter;stroke-opacity:1"
     sodipodi:nodetypes="ccccc" /></g></svg>